<?xml version="1.0" encoding="UTF-8"?><svg id="a" xmlns="http://www.w3.org/2000/svg" xmlns:xlink="http://www.w3.org/1999/xlink" viewBox="0 0 1998 1998"><defs><linearGradient id="b" x1="392.98" y1="1331.5" x2="999" y2="1331.5" gradientUnits="userSpaceOnUse"><stop offset="0" stop-color="#0076ff"/><stop offset=".74" stop-color="#09f"/></linearGradient><linearGradient id="c" x1="999.79" y1="653.08" x2="1604.45" y2="653.08" gradientUnits="userSpaceOnUse"><stop offset=".25" stop-color="#09f"/><stop offset="1" stop-color="#0076ff"/></linearGradient></defs><path d="M999,1998l-12.84-.08c4.28,.05,8.56,.08,12.84,.08Z" style="fill:#09f;"/><path d="M1919.38,610.06c-50.33-118.99-122.32-225.8-213.98-317.46-77.8-77.8-166.52-141.42-264.33-189.66,381.95,667.1-10.06,1096.98-125.93,1203.22-80.18,82.5-192.28,133.84-316.14,133.84-43.13,0-84.84-6.23-124.26-17.83l124.26,575.83c134.74,0,265.6-26.45,388.94-78.62,118.99-50.33,225.8-122.32,317.46-213.98,91.66-91.66,163.65-198.46,213.98-317.46,52.17-123.34,78.62-254.2,78.62-388.94s-26.45-265.6-78.62-388.94Z" style="fill:#09f;"/><path d="M711.34,665h0c77.28-66.65,177.85-107,287.66-107,43.07,0,84.72,6.21,124.1,17.78L999.79,0c-.26,0-.53,0-.79,0-134.74,0-265.6,26.45-388.94,78.62-118.99,50.33-225.8,122.32-317.46,213.98s-163.65,198.47-213.98,317.46C26.45,733.4,0,864.26,0,999s26.45,265.6,78.62,388.94c50.33,118.99,122.32,225.8,213.98,317.46,78.08,78.08,167.16,141.87,265.39,190.18-445.98-774.4,153.35-1230.58,153.35-1230.58Z" style="fill:#09f;"/><path d="M738.35,790.17l109.34,506.66c45.43,23.13,96.85,36.17,151.31,36.17,104.89,0,198.47-48.36,259.7-123.99l-108.8-508.04c-45.33-23-96.6-35.97-150.9-35.97-105.43,0-199.44,48.87-260.65,125.17Z" style="fill:#09f;"/><path d="M558,999c0-133.35,59.5-253.06,153.34-334h0s-599.33,456.18-153.35,1230.58c17.08,8.4,34.44,16.34,52.07,23.8,119.42,50.51,245.89,76.91,376.1,78.54l12.84,.08-124.26-575.83c-182.86-53.79-316.74-223.14-316.74-423.17Z" style="fill:url(#b);"/><path d="M738.35,790.17c-45.88,57.2-73.35,129.8-73.35,208.83,0,129.99,74.27,242.64,182.69,297.83" style="fill:#09f;"/><path d="M1440,999c0,119.3-47.62,227.69-124.86,307.16,115.87-106.24,507.87-536.12,125.93-1203.22-17.43-8.59-35.13-16.71-53.13-24.32C1264.84,26.55,1134.25,.11,999.79,0l123.3,575.77c182.94,53.73,316.9,223.12,316.9,423.22Z" style="fill:url(#c);"/><path d="M1258.7,1209.01c46.45-57.37,74.3-130.43,74.3-210.01,0-130.16-74.46-242.91-183.1-298.03" style="fill:#09f;"/></svg>